# xmcd
#
# Track frame offsets:
#	150
#	18990
#	39610
#	59105
#	78755
#	95075
#	112965
#	135335
#	156060
#	177347
#	199287
#	217102
#	238832
#	261849
#	284427
#	304094
#
# Disc length: 4186 seconds
#
# Revision: 1
# Processed by: cddbd v1.5.1PL0 Copyright (c) Steve Scherf et al.
# Submitted via: CDex 1.50Beta5
#
DISCID=e8105810
DTITLE=smap - The Best Of SMAP
DYEAR=1900
DGENRE=pop
TTITLE0=Let It Be
TTITLE1=夜空ノムコウ
TTITLE2=KANSHAして
TTITLE3=らいおんハート
TTITLE4=Hey Hey おおきに毎度あり
TTITLE5=Don't Cry Baby
TTITLE6=Fly
TTITLE7=たぶんオーライ
TTITLE8=君色思い
TTITLE9=はじめての夏
TTITLE10=たいせつ
TTITLE11=ダイナマイト
TTITLE12=朝日を見に行こうよ
TTITLE13=オレンジ
TTITLE14=Shake
TTITLE15=雪が降ってきた
EXTD=
EXTT0=
EXTT1=
EXTT2=
EXTT3=
EXTT4=
EXTT5=
EXTT6=
EXTT7=
EXTT8=
EXTT9=
EXTT10=
EXTT11=
EXTT12=
EXTT13=
EXTT14=
EXTT15=
PLAYORDER=
